<svg xmlns="http://www.w3.org/2000/svg" viewBox="0 0 254.58 92.99"><defs><style>.cls-1{fill:#d3d3d3;}.cls-2{fill:#fff;}</style></defs><title>Aeppel_Store_Icon</title><g id="Ebene_2" data-name="Ebene 2"><g id="Ebene_1-2" data-name="Ebene 1"><rect x="0.91" y="0.92" width="252.76" height="91.15" rx="10.48"/><path class="cls-1" d="M243.8,93h-233A10.83,10.83,0,0,1,0,82.15V10.84A10.83,10.83,0,0,1,10.79,0h233a10.82,10.82,0,0,1,10.78,10.84V82.15A10.82,10.82,0,0,1,243.8,93ZM10.79,1.83a9,9,0,0,0-9,9V82.15a9,9,0,0,0,9,9h233a9,9,0,0,0,9-9V10.84a9,9,0,0,0-9-9Z"/><path class="cls-2" d="M51.11,58.1A13.66,13.66,0,0,1,49,64.62c-4.18,6.65-10.38,9.57-18.07,9-7.27-.54-12.84-4.07-15.83-10.87-2.51-5.7-1.5-11.1,2.08-16.14,1.48-2.09,2.83-4.28,4.11-6.5a4.85,4.85,0,0,0,.56-2.59c-.45-6.37,5.44-11.4,12-10.58A10.2,10.2,0,0,1,43,35.42a2.15,2.15,0,0,1-.5,1.62c-3.73,3.75-4.87,8.19-3,13.1S45,57.62,50.24,58C50.51,58,50.77,58.06,51.11,58.1Z"/><path class="cls-2" d="M41.5,15.12a9.09,9.09,0,0,1-8.28,10.26C32.74,19.61,36.26,15.41,41.5,15.12Z"/><path class="cls-2" d="M72.67,22h2v9.78H79.8v1.79H72.67Z"/><path class="cls-2" d="M86.52,32.62a3.52,3.52,0,0,1-2.7,1.11A2.79,2.79,0,0,1,80.9,31a2.7,2.7,0,0,1,2.92-2.72,3.45,3.45,0,0,1,2.7,1.07V28.05c0-1-.79-1.56-2-1.56a3.45,3.45,0,0,0-2.48,1.06l-.74-1.26a5,5,0,0,1,3.52-1.36c1.85,0,3.49.78,3.49,3v5.55H86.52Zm0-2.27a2.41,2.41,0,0,0-2-.87,1.52,1.52,0,1,0,0,3,2.44,2.44,0,0,0,2-.87Z"/><path class="cls-2" d="M96.6,32.38a3.41,3.41,0,0,1-2.69,1.35c-2.15,0-3.73-1.63-3.73-4.39s1.56-4.41,3.73-4.41A3.38,3.38,0,0,1,96.6,26.3V22h1.82V33.52H96.6Zm0-4.71a2.76,2.76,0,0,0-2.17-1.12c-1.44,0-2.36,1.16-2.36,2.79s.92,2.77,2.36,2.77A2.73,2.73,0,0,0,96.6,31Z"/><path class="cls-2" d="M104.5,24.93c2.52,0,4.13,1.93,4.13,4.56v.44h-6.47a2.54,2.54,0,0,0,2.67,2.31,3.55,3.55,0,0,0,2.38-.92l.83,1.19a4.87,4.87,0,0,1-3.4,1.22,4.22,4.22,0,0,1-4.39-4.41A4.24,4.24,0,0,1,104.5,24.93Zm-2.36,3.72h4.72a2.24,2.24,0,0,0-2.36-2.23A2.32,2.32,0,0,0,102.14,28.65Z"/><path class="cls-2" d="M116.09,28.28c0-1.3-.66-1.73-1.69-1.73a2.77,2.77,0,0,0-2.15,1.12v5.85h-1.82V25.14h1.82v1.15a4,4,0,0,1,3-1.36,2.41,2.41,0,0,1,2.71,2.69v5.9h-1.82Z"/><path class="cls-2" d="M124.49,22.62a1.13,1.13,0,1,1,1.13,1.13A1.13,1.13,0,0,1,124.49,22.62Zm.23,2.52h1.82v8.38h-1.82Z"/><path class="cls-2" d="M139.17,28.05c0-.9-.4-1.5-1.37-1.5a2.55,2.55,0,0,0-2,1.11v5.86H134V28.05c0-.9-.4-1.5-1.39-1.5a2.54,2.54,0,0,0-1.92,1.12v5.85H128.9V25.14h1.82v1.15a3.63,3.63,0,0,1,2.72-1.36,2.18,2.18,0,0,1,2.29,1.55,3.56,3.56,0,0,1,2.85-1.55A2.21,2.21,0,0,1,141,27.47v6.05h-1.82Z"/><path class="cls-2" d="M87.07,61.76H77.16L75.62,66h-4l8.22-22H84.4l8.22,22h-4ZM77,39.9a1.84,1.84,0,1,1,1.85,2A1.88,1.88,0,0,1,77,39.9Zm1.19,18.46H86L82.11,47.23ZM83.56,39.9a1.85,1.85,0,1,1,1.85,2A1.89,1.89,0,0,1,83.56,39.9Z"/><path class="cls-2" d="M95.44,72.06V50h3.29v2.18a6,6,0,0,1,4.87-2.58c3.92,0,6.71,3.11,6.71,8.36s-2.79,8.39-6.71,8.39a5.89,5.89,0,0,1-4.87-2.61v8.28Zm7.18-19.34a4.85,4.85,0,0,0-3.89,2.14v6.31a5,5,0,0,0,3.89,2.15c2.61,0,4.27-2.22,4.27-5.32S105.23,52.72,102.62,52.72Z"/><path class="cls-2" d="M114.26,72.06V50h3.29v2.18a6,6,0,0,1,4.86-2.58c3.92,0,6.71,3.11,6.71,8.36s-2.79,8.39-6.71,8.39a5.87,5.87,0,0,1-4.86-2.61v8.28Zm7.18-19.34a4.84,4.84,0,0,0-3.89,2.14v6.31a5,5,0,0,0,3.89,2.15c2.6,0,4.27-2.22,4.27-5.32S124,52.72,121.44,52.72Z"/><path class="cls-2" d="M139.82,49.64c4.55,0,7.46,3.67,7.46,8.69v.82h-11.7a4.69,4.69,0,0,0,4.83,4.4,6.25,6.25,0,0,0,4.3-1.75l1.51,2.28a8.63,8.63,0,0,1-6.15,2.31c-4.55,0-7.94-3.34-7.94-8.39C132.13,53.38,135.33,49.64,139.82,49.64Zm-4.27,7.07h8.53a4.16,4.16,0,0,0-4.26-4.23A4.29,4.29,0,0,0,135.55,56.71Z"/><path class="cls-2" d="M151.17,44h3.29V66h-3.29Z"/><path class="cls-2" d="M168.82,59.91a8.84,8.84,0,0,0,6.62,3c3,0,4.2-1.55,4.2-3,0-2-2.22-2.58-4.76-3.27-3.42-.89-7.44-2-7.44-6.61,0-3.63,3-6.44,7.63-6.44a10.6,10.6,0,0,1,7.84,3.07l-2.1,2.88a8.29,8.29,0,0,0-6.06-2.51c-2.16,0-3.54,1.09-3.54,2.74s2.13,2.28,4.61,2.94c3.45.92,7.56,2,7.56,6.83,0,3.67-2.45,6.81-8.1,6.81a10.92,10.92,0,0,1-8.5-3.5Z"/><path class="cls-2" d="M187.48,62.29V53.08H185V50h2.51V45.68h3.3V50h3.07v3h-3.07v8.35c0,1.09.5,1.89,1.44,1.89a2,2,0,0,0,1.47-.57l.79,2.61a4.2,4.2,0,0,1-3.11,1C188.83,66.39,187.48,64.93,187.48,62.29Z"/><path class="cls-2" d="M196.51,58c0-4.56,3-8.36,7.78-8.36s7.82,3.8,7.82,8.36-3,8.39-7.82,8.39S196.51,62.59,196.51,58Zm12.18,0c0-2.81-1.57-5.28-4.4-5.28s-4.36,2.47-4.36,5.28,1.57,5.32,4.36,5.32S208.69,60.84,208.69,58Z"/><path class="cls-2" d="M216.05,50h3.29v2.35a6.38,6.38,0,0,1,4.93-2.71v3.43a4.41,4.41,0,0,0-1-.1,5.14,5.14,0,0,0-3.89,2.12V66h-3.29Z"/><path class="cls-2" d="M234.3,49.64c4.55,0,7.47,3.67,7.47,8.69v.82h-11.7a4.69,4.69,0,0,0,4.83,4.4,6.27,6.27,0,0,0,4.3-1.75l1.5,2.28a8.59,8.59,0,0,1-6.14,2.31c-4.55,0-7.94-3.34-7.94-8.39C226.62,53.38,229.82,49.64,234.3,49.64ZM230,56.71h8.53a4.17,4.17,0,0,0-4.27-4.23A4.28,4.28,0,0,0,230,56.71Z"/></g></g></svg>