<svg xmlns="http://www.w3.org/2000/svg" viewBox="0 0 130.3 86.39"><defs><style>.cls-1{fill:#fff;}</style></defs><title>coding_pirates_logo_white</title><g id="Ebene_2" data-name="Ebene 2"><g id="Logo"><path class="cls-1" d="M111.57,75.09c-1.16.46-4,1.88-6.36,2-.72,0-.83.49-.83.49a4.85,4.85,0,0,1-.36,1.75c-.29.35-1.94-1.06-2.06-1.93,0-.55-6,.67-7.74.87s-9.22,1.07-14,1.42a72.16,72.16,0,0,1-8.64.21c-.42,0-.27,2.52-.51,3s-2.18-1.76-2.22-3c-2.57.07-11-.19-16-1.4s-12-1.93-14.92-2.91a39.18,39.18,0,0,0-11.53-1.67c-2.68.23-8.47,1-10.14.46-.78-.29-.26-5.56-.26-5.91s2.91.81,6.14-.6,6.71-3,6.91-9-5.93-5.79-6.39-5.74a18.64,18.64,0,0,1-3.78.55,25.71,25.71,0,0,0-5,.41,7.92,7.92,0,0,1-2.91.14s1.15,6.91.92,8.53a2.55,2.55,0,0,1,1.7.72s-1.58.92-1.7,1.41.06,6.42-.46,9.48a4,4,0,0,1-3.51,2.07c-2.77.23-5.31.87-6.43,2.51C.89,79.32.06,79.32,0,80s1.07.64,3.08,0,2.54-1.29,5.36-1.44A36.63,36.63,0,0,0,16.8,76.9c2-.63,4-.11,5.21-.08a24.1,24.1,0,0,1,11,2.33c2,.95.55-1.35.4-1.76s0-1,1.13-.4a80.92,80.92,0,0,0,16.07,6.45,78,78,0,0,0,16.31,2.88,166.53,166.53,0,0,0,27.2-1.67c3.21-.71,3.61-1.42,3.61-1.42a4.57,4.57,0,0,1-.77-2c0-.68,2.06,1.51,2.17,1.67a23.22,23.22,0,0,0,10.49-3.38c4.42-2.89,4.76-3.27,4.9-3.94S112.72,74.63,111.57,75.09ZM20.85,56.53a3.36,3.36,0,0,1,2.92,3.81A7.17,7.17,0,0,1,21,65.87a5.65,5.65,0,0,1-4.46.15c.15-1.3-.54-8.6-.54-8.6C17.09,56.65,20.16,56.42,20.85,56.53Z"/><path class="cls-1" d="M29.53,55.41s2.37-.29,2.6,1.64a60.14,60.14,0,0,1,.26,11.27c-.21,1.61-2.66,2.45-2.86,2.73s-.44.83.68.91,4.11.15,4.8.5a7.47,7.47,0,0,0,3.3,0c.4-.16.9-.77,0-1.66-.59-.41-1.48-.25-1.57-1s-.68-4.47-.06-13.65a3.21,3.21,0,0,1,2.8-1.75c1,0,.58-1.57-.11-1.48-1.33,0-2.31.58-3.56.83a13.74,13.74,0,0,1-3.9,0C31.17,53.61,29.24,54.34,29.53,55.41Z"/><path class="cls-1" d="M42.59,32.56s2.36-.29,2.59,1.64a60.14,60.14,0,0,1,.26,11.27c-.2,1.61-2.65,2.45-2.85,2.74s-.44.82.67.9,4.11.15,4.8.5a7.52,7.52,0,0,0,3.31,0c.4-.16.9-.77,0-1.65-.59-.42-1.48-.26-1.58-1.05s-.67-4.47-.06-13.65a3.22,3.22,0,0,1,2.81-1.74c1,0,.57-1.58-.12-1.48-1.32,0-2.3.57-3.55.82a13.74,13.74,0,0,1-3.9,0C44.22,30.77,42.3,31.5,42.59,32.56Z"/><path class="cls-1" d="M83.47,56A1.59,1.59,0,0,0,84,54.71c-.09-.52-.84-1.58-1.57-1.38s-1,1-1.81,1.05-2.92-.55-4.11-.55a26,26,0,0,0-3.84.07c-.38.18-2,.35-2,1.85S71,58.69,72,58.93s.77-1.78,1.15-1.9a1.16,1.16,0,0,1,2,.41,6.24,6.24,0,0,1,.39,3c.05.33,1,.23,1,.71s-.4.54-.84.7-.56,2.4-.56,2.9-.36.25-.5.11a4.21,4.21,0,0,0-2.38-.48c-1.25.08-1,.88-1.61.87s-.71-1.23-.73-1.69-.55-2.93-1-5.18-.32-2.42-.12-3.17-.63-2.45-1.58-2.33-3.6-.41-4.21.89S60,56.19,59.78,61c-.34,1.24-.46,1.07-.69.89a2,2,0,0,0-1.41-.14c-.66.12-2.19.26-2.45,1.61s-.14,1.85.46,2.28a1.54,1.54,0,0,0,1.85.14.6.6,0,0,0-.15-1c-.15,0-.7-.2-.75-.57s.52-.74.78-.64,1.24.29,1.15,1A17.75,17.75,0,0,1,58,67.4c-.2.86-.89,2.65-1.73,2.65a3.49,3.49,0,0,1-2.36-2,3.75,3.75,0,0,0-1.24-2,.79.79,0,0,1-.52-1,9.53,9.53,0,0,0,3.52-4.86,6.46,6.46,0,0,0-.9-6,1.1,1.1,0,0,0-1.21-.46,7.81,7.81,0,0,1-2.16.06,5.42,5.42,0,0,1-2.3-1.18c-.32-.29-1.06-.06-1.27.14a2.49,2.49,0,0,1-1.27.62A35.24,35.24,0,0,0,43,53.21c-.39.11-2.38.21-2.45,2-.12,1.07.4.66.59.63,0,0,1.21-.23,1.31.33a13.38,13.38,0,0,1-.25,5.18c-.17.36-.23.42-.43.5s-1.09,0-1,.67.51,1,1.31,1,.71,4.6.23,6c-.59.88-1.48.42-1.55,1.19s.41,1.48,1.68,1.55,1.33-.53,3.82-.13,2-.77,2-1-.48-.77-1.34-.67S45.94,69,46,68.62c0-.64,0-3.1.71-3.15s2.19,2.32,2.73,3.72,2.09,4,3.46,4.09a5,5,0,0,0,3.63-1.09c1-.81,1.48.31,2.21.61a4.57,4.57,0,0,0,2.86-.13c.48-.29,1.36-.58,1.34-1.54s-.73-.84-1.23-.46-.75.86-1.13.6a2.93,2.93,0,0,1-.37-2.42,7.4,7.4,0,0,1,1.53-2.74c.35-.28,3,.77,4,1.93a3.14,3.14,0,0,1,.6,3.61c-.28.3-.73-.34-.83.21a.82.82,0,0,0,.55,1c.41.19,1.06-.17,1.55-.76s1,0,1.21.3a1.45,1.45,0,0,0,1.44.56c.77-.09,2.7-.79,2.78-1.8s-.6-.76-1.12-.5-1.12.47-1.37.11a8.64,8.64,0,0,1-.16-3.46,3.11,3.11,0,0,1,2.28-1.51c.75,0,1.77-.11,2.1,1s-.6,3.83,1,5.12a4,4,0,0,0,3.65.69c.37-.07,2-.4,2.23-1.75s-.9-.74-1.08-.53-.59.88-1.3.53a.91.91,0,0,1-.27-1.38c.21-.09.92-.29.86-.65a.57.57,0,0,0-.69-.54c-.4.06-.81-.6-.75-.83a1.37,1.37,0,0,1,1.23-1c.56-.12.16-2,.14-2.4s-.1-4.36,0-6.23.71-1.46,1-1.3.93,1.57,1.83,1.59a.78.78,0,0,0,.82-1.13C83.29,56.61,83.24,56.17,83.47,56Zm-31.9,4.26c-.37,3.43-4.26,3.4-4.46,3.34s-1.16.58-.9-.14,0-7.9,0-7.9c0-.33.7-.09,1-.14S47.9,55,48.4,55C49.64,55,52,56.85,51.57,60.28ZM66.67,65c-.09.69-1.21.87-2.19.67A4.46,4.46,0,0,1,62,63.82c-.17-.54.52-1.58.84-2.24S64.08,58,64.08,58c.2-.61.72,0,.66.49a16.67,16.67,0,0,0,.46,4C65.49,63.16,66.76,64.34,66.67,65Z"/><path class="cls-1" d="M85.79,53.46s-1.25.35-1.17,1.11a1.2,1.2,0,0,0,1.06,1.16.61.61,0,0,1,.61.69,19,19,0,0,1,.33,5.13c-.11.57-.52.5-.72.56s-2.23.49-2.23,1,.1,1,.7,1,.85-.28,1.33-.34.46.52.4.75a20.57,20.57,0,0,1-.27,4.79,3,3,0,0,1-1.33,1.57c-.48.21-1,0-.94.44s.18.81.94.9a2,2,0,0,0,1.62-.32c.28-.27.82-.83,1.26-.81a2.38,2.38,0,0,1,1.45.71,2.07,2.07,0,0,0,1.65.45A19.36,19.36,0,0,0,94.63,72a3.12,3.12,0,0,0,2-2.39,3.89,3.89,0,0,0-.75-2.78,3.45,3.45,0,0,0-1.45-.56c-.49,0-1.66.68-1.56,1.21s-.08.81.27,1,.69-.06.86-.06.5,0,.41.54-.08,1.06-.75,1.27a7.14,7.14,0,0,1-2,.25c-.5,0-1.73.1-1.92-1a24,24,0,0,1,.07-4.59,2.89,2.89,0,0,1,.85-1.42c.35-.21.38-.56.71-.48.6,0,.56.81,1,.71s1.31,0,1.44-1.25-.29-1.94-.71-2-.75.79-1.21,1-.35.42-.69.37-1-.25-1-1-.1-5.12.23-5.45.67-.56,1.08-.23.71.94,1.24.75c.71.15,1,.15,1.31-.06s.1-.44.5-.34.61,1.26,1.54,1.17.86-.69.92-1.12a13.36,13.36,0,0,0-.14-2.36c-.07-.42-.76-1.34-1.23-1.23s-.94,1.29-1.36,1.4a9.72,9.72,0,0,1-2.21.5c-.59,0-3.21-.46-3.67-.44A22.35,22.35,0,0,0,85.79,53.46Z"/><path class="cls-1" d="M105.8,54.25s-1.21-1.48-2.28-1.4c-.22,0-.23.41-.33.44s-.2-.36-.33-.41a6.24,6.24,0,0,0-3.16.45,7.42,7.42,0,0,0-2,3.1A8.83,8.83,0,0,0,97,58.79,9.17,9.17,0,0,0,97.11,61c.11.28.69,2.41,2.47,2.91s1.68,0,2.38.44,2.56.69,3.06,2a4,4,0,0,1,0,2.94c-.16.17-.77,1.16-1.54,1.17s-2.44-.37-2.73-.88a10.75,10.75,0,0,1-1.17-2.4c0-.43-.35-1-.7-.84s-.41.71-.38.93.34,1.19.15,1.51S97,70.51,97,71s-.29,1.5.77,1.27a1.8,1.8,0,0,0,1.4-1c.15-.24.33-.35.58-.19s1.61,1.57,2.42,1.49,4,.29,5.39-1.73a5.52,5.52,0,0,0,1-3.82c.05-.5-.14-1.68-.07-2s-.59-2.21-1.45-2.42S104.22,61,103.39,61a4.34,4.34,0,0,1-2.09-.79c-.29-.22-1.9-1.79-1.86-2.52s.46-2.06,1.63-2.13,1.64-.65,2.84,0a6.38,6.38,0,0,1,2.26,1.85c.07.25.32.76.66.74s1.31,0,1.4-.54-.43-.58-.36-1a.66.66,0,0,0-.49-.71c-.19-.05-.29-.75,0-.83a11.87,11.87,0,0,1,1.2-.09c.45-.06.47-.81.14-1s-1-1.14-1.46-.67-.34.88-.65.87S106.16,54.43,105.8,54.25Z"/><path class="cls-1" d="M42.34,38.36a21.41,21.41,0,0,0-1-4.25,8.3,8.3,0,0,0-1.94-2.86A4.24,4.24,0,0,0,37.35,30c-.5,0-1.35.31-2.38.31s-2.58-.23-3.29-.15-1.67.27-1.67.27-1.51.23-1.5,1.07,1.14.63,1.18,1,.17.65-.06.88.11,5.11,0,5.5-.88.23-1.15,1.21.63.84.86.92.54.25.44.63.4,4.17-.08,5.34c-.36.77-1.3.89-1.57,1.17s-.62.41-.4.79a1,1,0,0,0,1.17.58,5.06,5.06,0,0,0,1.69-.39c.46-.27.82.1,1.07.41s2.6.21,3.29.15a25.37,25.37,0,0,0,3.36-.21,5.3,5.3,0,0,0,3.76-4.69A36.94,36.94,0,0,0,42.34,38.36Zm-4.23,5.51A10.43,10.43,0,0,1,37,46.72a2.56,2.56,0,0,1-2.73,1.42c-.29,0-.38-.46-.29-.93s0-3.18.06-3.48-.23-2.61-.18-2.88.51-.35.79-.4.49.2.8.26.35.06.67-.34-.1-1.49-.36-1.7-.63-.05-.74-.1-1.16.72-1-.1a25.89,25.89,0,0,0,.28-4.92c0-.23-.06-.56-.3-.6a.54.54,0,0,1-.48-.45c0-.24.72-.43.72-.43a1.83,1.83,0,0,1,1.33,0,4.49,4.49,0,0,1,2.78,3.66A73.73,73.73,0,0,1,38.11,43.87Z"/><path class="cls-1" d="M11,54.23s-.07-.13-.48,0-.31.56-.32.81-.13.93,1.08,1S11,54.23,11,54.23Z"/><path class="cls-1" d="M14.88,43.25c-.47,0-.87.14-1.37.17a5.85,5.85,0,0,1-1.73-.16c-.09,0-.23-.18-.41,0s-.31,1,.14,1.2.36,0,.5.14-.2.77-.28,1.11a8.36,8.36,0,0,1-.59,1.87c-.27.4-.26,1.48-.71,1.54-.28,0-.68.22-1.15.31h0c-.08,0-.89,1-.88.61a.87.87,0,0,0-.28-.65h0C7.21,49.12,6,48,6,47.35s0-3.5.14-4.23a23.9,23.9,0,0,0-.1-3.2,9.08,9.08,0,0,1,.38-3.18c.35-.51.68-3.11,1.18-3.49s1.17-1.07,1.71-1,1.54.4,1.54.8.24,1,0,1.22.06.59,0,.73-.81.21-.74.64.41.8,1.13.7a12.57,12.57,0,0,1,2.51-.16A1.74,1.74,0,0,0,15,35.87c.33-.18.42-1,.09-1s-.87.07-1-.2A1.88,1.88,0,0,1,14,34s-.06-5.42-3.77-5.14-4.79,1-5.64,2.06S1.31,34.7,1.26,36.36a39,39,0,0,0,0,5.82,16.48,16.48,0,0,1-.12,4.56c-.17.8,1.49,5.08,3.94,5.71a15.25,15.25,0,0,0,5.59.28c.68-.11,3-2.45,3.31-3.88s.63-3.76.8-3.93a4.15,4.15,0,0,0,1-.8C16.08,43.63,15.35,43.23,14.88,43.25Z"/><path class="cls-1" d="M28,38.6a22,22,0,0,0-.8-5.06,10.08,10.08,0,0,0-1.88-2.46,4.85,4.85,0,0,0-2.78-.4s-3.63.34-4.83,2.59-1.82,4.09-1.57,5.11A23.27,23.27,0,0,1,16.1,43c-.07,1,.95,4.19,1.69,4.81S20.1,49.93,21.52,50s4.77-2.06,5.17-3.29A41,41,0,0,0,28,42.49,24,24,0,0,0,28,38.6Zm-2.39,5.48A5.42,5.42,0,0,0,26,45.4c.2.34-1.08.37-1.08.37a3.24,3.24,0,0,1-2.5,1.7c-1.08.12-1.94-1.08-2.16-1.91s0-1.57-.24-1.88a12.84,12.84,0,0,1-.84-3.24c0-.77.31-1.07.31-1.94a14.16,14.16,0,0,1,.71-3.2,5.63,5.63,0,0,1,.46-1h0s-.1-.43-.3-.51.76-.24.76-.24h0a3.33,3.33,0,0,1,.51-.63,6.89,6.89,0,0,1,.83-.5c.59-.3,1.36.37,2,.84a2.64,2.64,0,0,1,1.17,2,30.53,30.53,0,0,0,.53,3c.06.77.18,2.49.24,3.42a6.87,6.87,0,0,1-.69,2.4Z"/><path class="cls-1" d="M55.65,29.81s-.95.41-.92.92-.26.58-.47.61-1.18.14-1.12.66.29.81,1,.89c.35.14.21.64.21.64s.25,6.08.25,7.84c.32.11.37.05.5.25s-.46.28-.46.28.15,4.68,0,5.1-.06.78-.28,1-.75.41-.75.83a1.13,1.13,0,0,0,1.19,1c.75,0,3.4,0,3.64.07a9.88,9.88,0,0,0,1.64-.35c.18,0,.43-.69.35-.83s-.68-.77-1-.81-1,.06-1.37-.4a1.17,1.17,0,0,0-1-.38,4.24,4.24,0,0,0,.88-.62c.07-.16-.2-5.52-.22-6.33s.52-.12.58,0,4.16,6.16,6.77,9.44a1.13,1.13,0,0,0,1.67.19c.06-.14.1-.57-.06-.65s0-.33.22-.28a3.65,3.65,0,0,0,1.31.14c.53-.09.68-.73.55-1.21s-.92-.92-1.12-1.3-.23-9.68-.19-10,.07-4,.12-4.29.11-.58.28-.5.41.42.62.28.75-.91.57-1.36-.84-.87-1.9-.8-3.31.24-4,1.48.9.64,1.06,1.08-.06,5.37.26,8.58c-.67-.21-3-2.44-4-5.49l-1-3.06s-.31-.74,0-.87.75-.17.72-.58-.77-.89-1.53-.73-.69.9-1.08,1.05a.81.81,0,0,1-1-.36C56.53,30.65,56.4,29.52,55.65,29.81Z"/><path class="cls-1" d="M81.61,39.84c-.38,0-.87.36-1.29.42A4,4,0,0,1,79,40c-.3-.07-.91-.78-1.19-.73s-1.3,0-1.5.32a1.21,1.21,0,0,0-.11,1.33c.27.78.54.56,1.24,1a2.17,2.17,0,0,1,.82,2c0,.81.08,2.49-.2,2.74a3.51,3.51,0,0,1-1.75.74,3.56,3.56,0,0,1-2.65-2.82c0-1.51-.29-3.24-.33-5.2a9.24,9.24,0,0,1,1.31-4.43c.36-.6.71-2,1.59-2.24s1.64.19,1.67.63.36,1.28.35,1.65a2.42,2.42,0,0,1-.15,1c-.1.09-.66.43-.44.77a1,1,0,0,0,1.07.38c.35-.08.7-.53,1-.48,0,0,1.54.31,1.54-.32s-.29-.64-.43-1.08-.24-2.66-.77-3.38-1.3-2.14-2.93-2.09-2.4,0-3.36.81l-.22.2a4.43,4.43,0,0,0,.13,1.71c0,.36-1.7,0-1.71,0a6.66,6.66,0,0,0-1,1.56,41,41,0,0,0-.43,6.29c0,1.42-.05,3.61,0,4.28a13.8,13.8,0,0,0,.4,2.69,5,5,0,0,0,.75,1.41,5.42,5.42,0,0,0,1.88-.37c.33-.29-.51,1.21-.52,1.24a2.75,2.75,0,0,0,.78.08c2.83-.12,3.58.19,3.85,0s2.93-.73,3.17-3.51a7.94,7.94,0,0,0,0-3,5.64,5.64,0,0,1,.08-1.29c.12-.25.46-.43.6-.58s.71-.42.66-.79S82,39.84,81.61,39.84Z"/><path class="cls-1" d="M42.31,40.87a11.43,11.43,0,0,0,3.2-.82c.94-.53.36-1.72.36-1.72a2.69,2.69,0,0,0-1.18.34,5.33,5.33,0,0,1-2.38.58c-.54-.06-.62.8-.62.8Z"/><path class="cls-1" d="M128.37,52.68a12.25,12.25,0,0,0-2-.64c-2.71-1.07-5.36-.3-8-.49a13.38,13.38,0,0,1-2.13-.49c-.62-.16-.51-.66-.47-1.12.13-1.67.36-3.34.37-5,0-4.43-2.09-8.68-2.76-12.69-.14-.82-.25-1.19.5-1.49,1.24-.5,2.46-1,3.71-1.5,1.86-.69,3.76-1.27,5.59-2,2.91-1.21,2-4.57,1-6.87-.71-1.67-3.41-1.17-4.85,0-2,1.64-3.89,3.42-5.87,5.09a21.64,21.64,0,0,1-2.3,1.62c-.54.36-.76-.12-1-.45a33.4,33.4,0,0,0-2.18-2.7c-.08,0-3,1.41-2.92.31a19.2,19.2,0,0,0-.17-3.28,23.9,23.9,0,0,0-2.76-2,52.73,52.73,0,0,0-6.17-3.16c-.85-.39-1.11-.8-.77-1.58.75-1.73,1.52-3.44,2.31-5.16C98,8,98.51,6.86,99,5.75A4,4,0,0,0,97.56.24C97.46.16,97.12.08,97,0L95.94,0c-.65.15-1.41-.2-2,.06-1.41.64-2.65,1.78-2.36,3.33.48,2.63-.31,5.36-.46,8,0,.15,0,.3,0,.46-.17,1.73-.44,2.28-2.63,2A30.32,30.32,0,0,0,75.26,15.2a17.89,17.89,0,0,0-.64,4.08c.17.88-1.67-3-1.75-3.19l-1,.43c-.79.36-1.23.3-1.56-.5s-.72-1.54-1-2.33c-.82-2.27-1.59-4.55-2.43-6.81A3.84,3.84,0,0,0,63.3,4.24a3.77,3.77,0,0,0-3.63,1.87c-.9,1.43-.54,3,.26,4.55,2,3.84,3.42,3.89,5.1,5.87a13.51,13.51,0,0,1,1.57,2.32c.1.19-.17.81-.47,1-6.61,3.33-6.59,6-8.77,10a1.88,1.88,0,0,1,1.09-.61,2.72,2.72,0,0,1,.49-.05,2.19,2.19,0,0,1,2.28,1.73c0,.05,0,.09,0,.14a2.26,2.26,0,0,0,.84.15,3,3,0,0,1,.19-.41c.86-1.45,2.86-1.81,4.18-1.93.41-.46.84-.91,1.29-1.34C69.27,26,71,26.2,72,28c.35.58.69,1.17,1,1.75h0c1.18-1,2.19-1,3.72-1h.38a3.45,3.45,0,0,1,.57.05c-.65-1.1-1.29-2.2-1.92-3.31a2.42,2.42,0,0,1,1.42-3.69,22.38,22.38,0,0,1,8.2-1.18A2.43,2.43,0,0,1,88,23.81c-.31,1.5-.75,3-1.14,4.44h0c-.37,1.42-.76,2.83-1.1,4.26a1.15,1.15,0,0,1-1.25,1,16,16,0,0,0-2.83.41c0,.11,0,.22,0,.34s.08.56.1.65l.06.07a2.09,2.09,0,0,1,.42,1.31A1.42,1.42,0,0,1,81,37.7a2.41,2.41,0,0,0,.19,1.15,1.58,1.58,0,0,1,.38,0,1.6,1.6,0,0,1,1.58,1.6,1.76,1.76,0,0,1-.9,1.61l-.06,0a2.49,2.49,0,0,1-.31.27l-.06,0v.36a3.68,3.68,0,0,1,0,.47,9.54,9.54,0,0,1,0,3.09,4.54,4.54,0,0,1-1.7,3.25,6.24,6.24,0,0,0,1.59,3,3.5,3.5,0,0,1,.43-.17,2.07,2.07,0,0,1,2.1.77,3.26,3.26,0,0,1,1.18-.62,3.16,3.16,0,0,1,1-.1l1.15,0,.69,0h.14a20.23,20.23,0,0,1,2,.24c.62.09,1.39.2,1.62.21h0a8.4,8.4,0,0,0,1.48-.34c.42-.52.82-1.05,1.18-1.59A1,1,0,0,1,96,50.45c1.48.4,3,.77,4.44,1.16l.9.23c.32,0,.63,0,.91,0a3.1,3.1,0,0,1,.92.08,1.29,1.29,0,0,1,.21-.06h.25a4.06,4.06,0,0,1,2.57,1.3,3.24,3.24,0,0,1,.33-.49,1.37,1.37,0,0,1,1.06-.49,2.36,2.36,0,0,1,1.51.76,1.83,1.83,0,0,0,.17.15,1.57,1.57,0,0,1,.75,1.65,1.46,1.46,0,0,1-1.16,1.25,1.86,1.86,0,0,1,.09.48,1.63,1.63,0,0,1,.33,1.29c-.14.91-.91,1.39-2.29,1.43h-.14a1.61,1.61,0,0,1-1.38-.87c-.4.62-.82,1.23-1.27,1.81a12.06,12.06,0,0,1,1.81.86,9.14,9.14,0,0,0,1.33.63c1.16.27,2,1.78,2.19,2.85.2-.25.39-.51.58-.77,1.63-2.23,3.35-3.46,3.91-7.22.14-.89.75-1.24,1.63-.85,2.06.91,4.11,1.84,6.15,2.77.84.38,1.63.85,2.49,1.17s4,.47,5.38-1.43c.09-.12.2-.23.29-.35l.37-1.41A4.38,4.38,0,0,0,128.37,52.68ZM94.25,37a1,1,0,0,1-1.35-.12,5.23,5.23,0,0,0-2.62-1.39c-.45-.1-.48-.58-.39-1.07h0A26.78,26.78,0,0,1,87,35.6c.67-1.15,3.17-2.35,3.21-2.37.34-1.28.67-2.56,1-3.84h0c.36-1.39.69-2.78,1.09-4.16.63-2.15,2.12-2.77,4.09-1.72,2.31,1.23,4.73,2.51,6.15,4.71,1.73,2.65,1.2,3.19-.61,4.26C99.37,34,96.8,35.47,94.25,37ZM106.13,48.4c-1.55-.31-3.07-.78-4.6-1.18v0c-1.44-.37-2.88-.76-4.33-1.12A1,1,0,0,1,96.33,45c0-.13,0-.27,0-.4l-1-.51a2.61,2.61,0,0,0,.85-.47c-.07-.54-.16-1.07-.26-1.6s0-.85.44-1c3-1.23,5.35-3.16,8-4.69,1.58-.89,3.71-.34,3.72,1.48,0,3.69,1.23,5.4,1.11,8.2A2.43,2.43,0,0,1,106.13,48.4Z"/></g></g></svg>