<svg xmlns="http://www.w3.org/2000/svg" viewBox="0 0 257.52 93.64"><defs><style>.cls-1{fill:#d3d3d3;}.cls-2{fill:#46c1ee;}.cls-3{fill:#fff;}.cls-4{fill:#63b663;}.cls-5{fill:#e7344e;}.cls-6{fill:gold;}</style></defs><title>Gogole_Play_Icon</title><g id="Ebene_2" data-name="Ebene 2"><g id="Ebene_1-2" data-name="Ebene 1"><rect x="0.92" y="0.92" width="255.67" height="91.79" rx="9.7"/><path class="cls-1" d="M246.61,93.64H10.91A10.93,10.93,0,0,1,0,82.72V10.91A10.92,10.92,0,0,1,10.91,0h235.7a10.92,10.92,0,0,1,10.91,10.91V82.72A10.93,10.93,0,0,1,246.61,93.64ZM10.91,1.85a9.06,9.06,0,0,0-9.06,9.06V82.72a9.07,9.07,0,0,0,9.06,9.07h235.7a9.07,9.07,0,0,0,9.06-9.07V10.91a9.06,9.06,0,0,0-9.06-9.06Z"/><rect class="cls-2" x="12.65" y="20.76" width="12.59" height="56.87" rx="6.29"/><path class="cls-3" d="M74.08,32.29a2.75,2.75,0,0,0,2.07,1,2,2,0,0,0,2.13-2.2V22.82h2.13v8.3a3.74,3.74,0,0,1-4.1,4.06,4.22,4.22,0,0,1-3.22-1.27Z"/><path class="cls-3" d="M83,22.82h8.32V24.7H85.13v3.15h6.06v1.87H85.13v3.37h6.19V35H83Z"/><path class="cls-3" d="M96.4,24.7H92.72V22.82h9.49V24.7H98.53V35H96.4Z"/><path class="cls-3" d="M103.52,33.24l6.21-8.54h-6.21V22.82h9v1.73l-6.2,8.54h6.33V35h-9.1Z"/><path class="cls-3" d="M117.63,24.7H114V22.82h9.49V24.7h-3.68V35h-2.13Z"/><path class="cls-3" d="M129.92,22.82h6c2.22,0,3.46,1.39,3.46,3.1a2.71,2.71,0,0,1-2.11,2.78,3,3,0,0,1,2.35,3A3.2,3.2,0,0,1,136.06,35h-6.14Zm5.54,5a1.58,1.58,0,1,0,0-3.15h-3.41v3.15Zm.09,5.24a1.63,1.63,0,0,0,1.85-1.69,1.67,1.67,0,0,0-1.85-1.68h-3.5v3.37Z"/><path class="cls-3" d="M141.72,22.82H150V24.7h-6.19v3.15h6.06v1.87h-6.06v3.37H150V35h-8.32Z"/><path class="cls-3" d="M152.23,22.82h2.13V35h-2.13Z"/><path class="cls-3" d="M85.61,41.1A11.07,11.07,0,0,1,95.12,46l-3.39,1.91a7.52,7.52,0,0,0-6.12-3.15c-4.67,0-8.13,3.57-8.13,8.52s3.46,8.56,8.13,8.56a8.64,8.64,0,0,0,5.59-2.12V56.06h-7V52.42H95.34v8.84a12.82,12.82,0,0,1-9.73,4.28c-6.82,0-12.38-4.85-12.38-12.24S78.79,41.1,85.61,41.1Z"/><path class="cls-3" d="M96.78,56.52c0-4.88,3.36-9,8.77-9s8.81,4.07,8.81,9-3.33,9-8.81,9S96.78,61.44,96.78,56.52Zm13.72,0c0-3-1.76-5.66-5-5.66s-4.91,2.65-4.91,5.66,1.77,5.69,4.91,5.69S110.5,59.56,110.5,56.52Z"/><path class="cls-3" d="M117.93,66.78A6.6,6.6,0,0,0,123.34,69c2.44,0,5-1.13,5-4.63V62.29a6.94,6.94,0,0,1-5.48,2.82c-4.35,0-7.57-3.14-7.57-8.77s3.19-8.77,7.57-8.77a6.79,6.79,0,0,1,5.48,2.8V48h3.72V64.19c0,6.16-4.57,7.82-8.77,7.82a9.66,9.66,0,0,1-7.15-2.55Zm10.46-13.62a5.54,5.54,0,0,0-4.38-2.3c-2.94,0-4.81,2.19-4.81,5.48s1.87,5.49,4.81,5.49a5.54,5.54,0,0,0,4.38-2.3Z"/><path class="cls-3" d="M134.15,56.52c0-4.88,3.36-9,8.77-9s8.81,4.07,8.81,9-3.32,9-8.81,9S134.15,61.44,134.15,56.52Zm13.73,0c0-3-1.77-5.66-5-5.66S138,53.51,138,56.52s1.77,5.69,4.91,5.69S147.88,59.56,147.88,56.52Z"/><path class="cls-3" d="M153.78,41.49h3.71V65.08h-3.71Z"/><path class="cls-3" d="M168.21,47.57c5.12,0,8.41,3.93,8.41,9.3v.89H163.43a5.17,5.17,0,0,0,5.45,4.7,7.22,7.22,0,0,0,4.84-1.87l1.7,2.44a10,10,0,0,1-6.93,2.47,8.59,8.59,0,0,1-9-9A8.64,8.64,0,0,1,168.21,47.57Zm-4.81,7.57H173a4.58,4.58,0,0,0-4.81-4.53A4.7,4.7,0,0,0,163.4,55.14Z"/><path class="cls-3" d="M186.09,41.49h10.37c4.95,0,7.71,3.4,7.71,7.39s-2.8,7.39-7.71,7.39h-6.23v8.81h-4.14Zm9.8,3.64h-5.66v7.5h5.66a3.76,3.76,0,1,0,0-7.5Z"/><path class="cls-3" d="M205.79,41.49h3.71V65.08h-3.71Z"/><path class="cls-3" d="M223,63.24a7.19,7.19,0,0,1-5.51,2.26,5.67,5.67,0,0,1-5.94-5.66c0-3.92,3.14-5.55,5.94-5.55a7,7,0,0,1,5.51,2.2V53.94c0-2-1.62-3.18-4-3.18A7,7,0,0,0,214,52.91l-1.52-2.58a10.18,10.18,0,0,1,7.18-2.76c3.78,0,7.11,1.59,7.11,6.19V65.08H223Zm0-4.63A5,5,0,0,0,219,56.84c-2.09,0-3.65,1.2-3.65,3.08s1.56,3,3.65,3A5,5,0,0,0,223,61.19Z"/><path class="cls-3" d="M231.1,68.72a2.31,2.31,0,0,0,2.44-1.48l.85-1.95-7-17.29h4l5,12.8,5-12.8h4l-8.24,20.16c-1.17,2.9-3.22,3.82-5.87,3.85a10.65,10.65,0,0,1-2.09-.25l.57-3.32A3.81,3.81,0,0,0,231.1,68.72Z"/><path class="cls-4" d="M12.65,71.34a6.3,6.3,0,0,0,12.59,0V46.82L12.65,51.57Z"/><rect class="cls-5" x="35.84" y="20.75" width="12.59" height="56.87" rx="6.29"/><path class="cls-6" d="M35.84,71.34a6.3,6.3,0,0,0,12.59,0V46.82L35.84,51.57Z"/></g></g></svg>